<svg xmlns="http://www.w3.org/2000/svg" width="143.262" height="63.255" viewBox="0 0 143.262 63.255">
  <path id="Union_2" data-name="Union 2" d="M124.016,68.614a4.334,4.334,0,0,1-1.441-.816,3.709,3.709,0,0,1-.946-1.266,3.909,3.909,0,0,1-.339-1.647,4,4,0,0,1,.323-1.615,3.762,3.762,0,0,1,.908-1.276,4.147,4.147,0,0,1,1.4-.834,5.246,5.246,0,0,1,1.809-.3,4.492,4.492,0,0,1,1.219.156,3.933,3.933,0,0,1,1,.432,3.822,3.822,0,0,1,.806.657,4.651,4.651,0,0,1,.622.838l-.8.558a6.193,6.193,0,0,0-.527-.651,4.129,4.129,0,0,0-.606-.539,2.855,2.855,0,0,0-.68-.365,2.141,2.141,0,0,0-.746-.133,2.6,2.6,0,0,0-1.012.2,2.418,2.418,0,0,0-.841.588,2.82,2.82,0,0,0-.574.961,3.793,3.793,0,0,0-.213,1.324,3.578,3.578,0,0,0,.226,1.32,2.887,2.887,0,0,0,.6.958,2.522,2.522,0,0,0,.86.587,2.638,2.638,0,0,0,1.012.2,2,2,0,0,0,.755-.14,2.639,2.639,0,0,0,.651-.374,3.829,3.829,0,0,0,.568-.549q.267-.315.508-.657l.788.578a4.445,4.445,0,0,1-.609.79,4.581,4.581,0,0,1-.809.67,4.115,4.115,0,0,1-.975.464,3.586,3.586,0,0,1-1.117.171A5.569,5.569,0,0,1,124.016,68.614Zm-97.93.152a4.629,4.629,0,0,1-1.057-.391,4.14,4.14,0,0,1-.886-.616,3.852,3.852,0,0,1-1.113-1.8,4.053,4.053,0,0,1-.153-1.127,3.873,3.873,0,0,1,.153-1.1,3.7,3.7,0,0,1,1.113-1.749,4.2,4.2,0,0,1,.886-.6,4.58,4.58,0,0,1,1.054-.378,5.291,5.291,0,0,1,1.187-.131,5.033,5.033,0,0,1,1.73.292,4.265,4.265,0,0,1,1.393.815,3.8,3.8,0,0,1,.93,1.251,3.7,3.7,0,0,1,.34,1.589,4,4,0,0,1-.34,1.667,3.876,3.876,0,0,1-.93,1.289A4.155,4.155,0,0,1,29,68.611a5.254,5.254,0,0,1-2.913.156Zm.187-6.989a2.12,2.12,0,0,0-.724.683,3.208,3.208,0,0,0-.438,1.044,5.68,5.68,0,0,0-.146,1.329,6.017,6.017,0,0,0,.146,1.368,3.387,3.387,0,0,0,.438,1.079,2.174,2.174,0,0,0,.724.711,1.9,1.9,0,0,0,1,.257,1.878,1.878,0,0,0,.987-.257,2.189,2.189,0,0,0,.72-.711,3.452,3.452,0,0,0,.441-1.079,5.862,5.862,0,0,0,.149-1.368,5.534,5.534,0,0,0-.149-1.329,3.27,3.27,0,0,0-.441-1.044,2.134,2.134,0,0,0-.72-.683,1.959,1.959,0,0,0-.987-.244A1.984,1.984,0,0,0,26.274,61.777ZM6.76,68.614A4.334,4.334,0,0,1,5.319,67.8a3.709,3.709,0,0,1-.946-1.266,3.909,3.909,0,0,1-.339-1.647,3.982,3.982,0,0,1,.324-1.615,3.759,3.759,0,0,1,.907-1.276,4.147,4.147,0,0,1,1.4-.834,5.246,5.246,0,0,1,1.809-.3,4.492,4.492,0,0,1,1.219.156,3.933,3.933,0,0,1,1,.432,3.823,3.823,0,0,1,.806.657,4.652,4.652,0,0,1,.622.838l-.8.558a6.193,6.193,0,0,0-.527-.651,4.128,4.128,0,0,0-.606-.539,2.855,2.855,0,0,0-.68-.365,2.141,2.141,0,0,0-.746-.133,2.6,2.6,0,0,0-1.013.2,2.419,2.419,0,0,0-.841.588,2.82,2.82,0,0,0-.574.961,3.793,3.793,0,0,0-.213,1.324,3.578,3.578,0,0,0,.226,1.32,2.887,2.887,0,0,0,.6.958,2.521,2.521,0,0,0,.86.587,2.638,2.638,0,0,0,1.013.2,2,2,0,0,0,.755-.14,2.639,2.639,0,0,0,.651-.374,3.829,3.829,0,0,0,.568-.549q.267-.315.509-.657l.787.578a4.445,4.445,0,0,1-.609.79,4.581,4.581,0,0,1-.809.67,4.115,4.115,0,0,1-.975.464,3.586,3.586,0,0,1-1.117.171A5.569,5.569,0,0,1,6.76,68.614Zm110.849.238-4.754-5.4v5.275h-1.193V61.051h1.2l4.379,4.888V61.051h1.187v7.8Zm-23.122-.276a4.33,4.33,0,0,1-1.444-.784,3.589,3.589,0,0,1-.946-1.222,3.647,3.647,0,0,1-.339-1.589A4.058,4.058,0,0,1,92.1,63.3,3.852,3.852,0,0,1,93.04,62a4.276,4.276,0,0,1,1.438-.841,5.385,5.385,0,0,1,1.825-.3,3.97,3.97,0,0,1,1.13.159,4.762,4.762,0,0,1,1,.419,4.4,4.4,0,0,1,.829.6,4,4,0,0,1,.606.692l-.774.711a6.869,6.869,0,0,0-.508-.638,3.653,3.653,0,0,0-.569-.514,2.683,2.683,0,0,0-.644-.347,2.107,2.107,0,0,0-.737-.127,2.829,2.829,0,0,0-1.113.216,2.5,2.5,0,0,0-.883.622,2.94,2.94,0,0,0-.584.994,3.921,3.921,0,0,0-.212,1.337,3.619,3.619,0,0,0,.225,1.323,2.764,2.764,0,0,0,.617.965,2.621,2.621,0,0,0,.913.594,3.1,3.1,0,0,0,1.127.2,2.35,2.35,0,0,0,.673-.094,1.993,1.993,0,0,0,.584-.286V65.64H96.678v-.66H99.87v2.964q-.367.2-.736.362a5.949,5.949,0,0,1-.787.286,6.649,6.649,0,0,1-.914.19,8.021,8.021,0,0,1-1.117.07A5.8,5.8,0,0,1,94.487,68.576Zm-23.787,0a4.33,4.33,0,0,1-1.444-.784,3.577,3.577,0,0,1-.946-1.222,3.647,3.647,0,0,1-.34-1.589,4.058,4.058,0,0,1,.34-1.679,3.828,3.828,0,0,1,.942-1.3,4.267,4.267,0,0,1,1.438-.841,5.383,5.383,0,0,1,1.824-.3,3.972,3.972,0,0,1,1.13.159,4.782,4.782,0,0,1,1,.419,4.428,4.428,0,0,1,.829.6,4.04,4.04,0,0,1,.606.692l-.774.711A6.73,6.73,0,0,0,74.8,62.8a3.648,3.648,0,0,0-.568-.514,2.671,2.671,0,0,0-.644-.347,2.1,2.1,0,0,0-.736-.127,2.834,2.834,0,0,0-1.114.216,2.5,2.5,0,0,0-.882.622,2.941,2.941,0,0,0-.584.994,3.921,3.921,0,0,0-.212,1.337,3.6,3.6,0,0,0,.225,1.323,2.775,2.775,0,0,0,.616.965,2.632,2.632,0,0,0,.914.594,3.1,3.1,0,0,0,1.127.2,2.343,2.343,0,0,0,.672-.094,1.972,1.972,0,0,0,.584-.286V65.64H72.89v-.66h3.193v2.964q-.369.2-.736.362a5.916,5.916,0,0,1-.787.286,6.607,6.607,0,0,1-.913.19,8.026,8.026,0,0,1-1.118.07A5.8,5.8,0,0,1,70.7,68.576Zm-6.41.276-4.755-5.4v5.275H58.343V61.051h1.2l4.379,4.888V61.051H65.11v7.8Zm70.246-.121V65.519l-3.262-4.469h1.974L135.78,64.5l2.368-3.453h1.27l-2.99,4.354v3.326Zm-31.474,0V61.051h5.731V61.7h-3.853v2.54h3.2v.66h-3.2v3.047h3.853v.787Zm-14.711,0-.959-2.1H84.409l-1.01,2.1H82.118l3.751-7.853h.813l3.6,7.853Zm-3.593-2.819h2.317l-1.137-2.481ZM53.184,68.731V61.051h1.886v7.681Zm-5.134,0V65.075H44.959v3.657H43.079V61.051h1.879v3.364h3.091V61.051h1.873v7.681Zm-12.161,0V61.7h-2.66v-.647h7.2V61.7h-2.66v7.034Zm-20.925,0V61.051h1.878v6.893h3.923v.787Zm.985-14.616q-1.575-.714-3.172-1.638A27.66,27.66,0,0,1,9.689,50.4a15.279,15.279,0,0,1-2.624-2.583,12.716,12.716,0,0,1-1.827-3.128,9.749,9.749,0,0,1-.693-3.717,8.4,8.4,0,0,1,1.134-4.41A8.687,8.687,0,0,1,8.7,33.536a8.46,8.46,0,0,1-1.932-1.743,3.532,3.532,0,0,1-.84-2.289A2.46,2.46,0,0,1,6.96,27.4a6.68,6.68,0,0,1,2.457-1.092l7.434-1.848a4.3,4.3,0,0,0,1.323-.567,1.21,1.21,0,0,0,.525-1.071,1.417,1.417,0,0,0-.315-.9.956.956,0,0,0-.777-.4H1.857a.857.857,0,0,1-.441-.189A3.05,3.05,0,0,1,.408,20.1a2.224,2.224,0,0,1-.189-.923H16.052a3.191,3.191,0,0,1,1.471.545,10.574,10.574,0,0,1,1.805,1.365,11.126,11.126,0,0,1,1.534,1.743,3,3,0,0,1,.651,1.679,1.849,1.849,0,0,1-.819,1.617,5.5,5.5,0,0,1-1.911.819l-7.434,1.848a5.914,5.914,0,0,0-1.849.819,1.79,1.79,0,0,0-.756,1.575,2.392,2.392,0,0,0,.841,1.849,12.026,12.026,0,0,1,5.459-1.219,9.853,9.853,0,0,1,4.347,1.008,14.576,14.576,0,0,1,3.7,2.542A13.138,13.138,0,0,1,25.671,38.7a7.318,7.318,0,0,1,.966,3.443,5.416,5.416,0,0,1-.482,2.247,7.487,7.487,0,0,1-1.282,1.953,8.545,8.545,0,0,1-1.848,1.533,7.8,7.8,0,0,1-2.226.945,3.745,3.745,0,0,1-2.436-2.52,8.886,8.886,0,0,0,3.843-2.372,5.828,5.828,0,0,0,1.575-4.18,5.141,5.141,0,0,0-.462-2.205,5,5,0,0,0-1.3-1.7,6.165,6.165,0,0,0-1.974-1.112,7.545,7.545,0,0,0-2.52-.4,11.924,11.924,0,0,0-3.759.589,9.749,9.749,0,0,0-3.15,1.7,8.127,8.127,0,0,0-3,6.489,7.943,7.943,0,0,0,.735,3.443,9.507,9.507,0,0,0,2.184,2.9,19.387,19.387,0,0,0,3.632,2.583,48.132,48.132,0,0,0,5.082,2.457,1.051,1.051,0,0,1-.126.463,1.487,1.487,0,0,1-.252.378Q17.522,54.829,15.948,54.115ZM53.6,48.089a19.646,19.646,0,0,1-3.38-2.961A16.87,16.87,0,0,1,47.552,41.2a10.965,10.965,0,0,1-1.092-4.935,10.4,10.4,0,0,1,.735-4.032,8.559,8.559,0,0,1,1.994-2.961,8.474,8.474,0,0,1,2.877-1.806,10.322,10.322,0,0,1,9.387,1.239,11.969,11.969,0,0,1,3.654,4.662l7.434-5.46V21.524H43.772a1,1,0,0,1-.671-.252,2.122,2.122,0,0,1-.3-.317,2.151,2.151,0,0,1,.089.569H36.549V48.949a4.715,4.715,0,0,1-1.638-.293,3.227,3.227,0,0,1-1.386-1.008V21.524H23.193a1,1,0,0,1-.672-.252,2.263,2.263,0,0,1-.5-.63,4.168,4.168,0,0,1-.336-.777,2.339,2.339,0,0,1-.126-.693h19.7a1,1,0,0,1,.672.252,2.082,2.082,0,0,1,.3.316,2.171,2.171,0,0,1-.089-.568H93.542a1,1,0,0,1,.672.252,2.067,2.067,0,0,1,.278.29,2.517,2.517,0,0,1-.068-.542H134.24a15.511,15.511,0,0,0-1.785-7.791,5.66,5.66,0,0,0-5.187-2.793,6.741,6.741,0,0,0-2.373.4,5.331,5.331,0,0,0-1.827,1.113,4.844,4.844,0,0,0-1.155,1.659,5.174,5.174,0,0,0-.4,2.037,5.437,5.437,0,0,0,.378,2.038,6.2,6.2,0,0,0,.882,1.575.671.671,0,0,1-.545.419,11.362,11.362,0,0,1-2.5-2.667,5.779,5.779,0,0,1-1.071-3.3,5.416,5.416,0,0,1,.525-2.416,5.654,5.654,0,0,1,1.408-1.827,6.158,6.158,0,0,1,2.057-1.155,7.65,7.65,0,0,1,2.479-.4A8.23,8.23,0,0,1,129.2,7.2a14.656,14.656,0,0,1,3.676,2.961,17.3,17.3,0,0,1,2.793,4.2,14.591,14.591,0,0,1,1.386,4.81h4.788a1,1,0,0,1,.672.252,2.283,2.283,0,0,1,.5.63,4.2,4.2,0,0,1,.336.777,2.359,2.359,0,0,1,.126.693h-6.342V48.949a4.719,4.719,0,0,1-1.638-.293,3.238,3.238,0,0,1-1.386-1.008V21.524H123.867V48.949a4.715,4.715,0,0,1-1.638-.293,3.227,3.227,0,0,1-1.386-1.008V41.137a11.424,11.424,0,0,0-.735-4.053,10.664,10.664,0,0,0-2.142-3.486,11.369,11.369,0,0,0-3.423-2.52,12.585,12.585,0,0,0-4.536-1.2,6.881,6.881,0,0,1,1.722,1.238,9.182,9.182,0,0,1,1.407,1.764,9.868,9.868,0,0,1,.967,2.058,6.687,6.687,0,0,1,.356,2.121,6.6,6.6,0,0,1-.567,2.813,6.236,6.236,0,0,1-1.512,2.058,6.327,6.327,0,0,1-2.163,1.26,7.68,7.68,0,0,1-2.52.42,7.813,7.813,0,0,1-3.192-.778,12.942,12.942,0,0,1-3.191-2.057,12.407,12.407,0,0,1-2.457-2.9,6.19,6.19,0,0,1-.987-3.255,6.751,6.751,0,0,1,.651-2.982,6.485,6.485,0,0,1,1.849-2.29,8.907,8.907,0,0,1,2.835-1.47,11.781,11.781,0,0,1,3.612-.525,14.988,14.988,0,0,1,4.074.567,16.987,16.987,0,0,1,3.821,1.6,18.465,18.465,0,0,1,3.361,2.457,20.845,20.845,0,0,1,2.772,3.108V21.524H96.021a1,1,0,0,1-.672-.252,2.093,2.093,0,0,1-.237-.239,2.042,2.042,0,0,1,.068.491H88.839V48.949a4.715,4.715,0,0,1-1.638-.293,3.227,3.227,0,0,1-1.386-1.008V21.524H75.567V48.949a4.719,4.719,0,0,1-1.638-.293,3.233,3.233,0,0,1-1.386-1.008V31.9l-11.8,8.609a3.591,3.591,0,0,1-1.449-1.071,5.246,5.246,0,0,1-.819-1.238l5.711-4.158A7.355,7.355,0,0,0,61.5,30.679,6.961,6.961,0,0,0,57.549,29.5a8.28,8.28,0,0,0-3.045.567,7.2,7.2,0,0,0-2.542,1.679A8.413,8.413,0,0,0,50.2,34.522a10.3,10.3,0,0,0-.671,3.885,10.708,10.708,0,0,0,.5,3.4,9.723,9.723,0,0,0,1.49,2.814,13.611,13.611,0,0,0,2.457,2.457,32.639,32.639,0,0,0,3.361,2.289,1.049,1.049,0,0,1-.463.714A30.929,30.929,0,0,1,53.6,48.089Zm52.06-17.725a7.665,7.665,0,0,0-2.479,1.386,6.5,6.5,0,0,0-1.679,2.164,6.368,6.368,0,0,0-.609,2.813,4.355,4.355,0,0,0,1.239,3.318,4.418,4.418,0,0,0,3.171,1.176,6.364,6.364,0,0,0,2.52-.483,5.983,5.983,0,0,0,3.276-3.381,6.949,6.949,0,0,0,.462-2.561,5.9,5.9,0,0,0-.167-1.345,6.129,6.129,0,0,0-.526-1.407,5.652,5.652,0,0,0-.882-1.26,4.414,4.414,0,0,0-1.281-.945A10.117,10.117,0,0,0,105.66,30.364ZM81.909,21.524Zm-51.45,0Zm2.478-7.539a12.763,12.763,0,0,0-2.163-3A9.155,9.155,0,0,0,28,9.029a7.9,7.9,0,0,0-3.3-.693,10.907,10.907,0,0,0-3.381.462,22.372,22.372,0,0,0-2.793,1.134,7.628,7.628,0,0,1-1.113-1.323,4.561,4.561,0,0,1-.693-1.491A10.973,10.973,0,0,1,26.8,6.655a13.78,13.78,0,0,1,3.843,2.688,17.485,17.485,0,0,1,2.919,3.821,18.107,18.107,0,0,1,1.806,4.41,1.626,1.626,0,0,1-.924.252A19.226,19.226,0,0,0,32.936,13.984Z" transform="translate(-0.219 -5.647)" fill="#fff"/>
</svg>
